<svg width="143" height="48" viewBox="0 0 143 48" fill="none" xmlns="http://www.w3.org/2000/svg">
<g clip-path="url(#clip0_52_246)">
<path d="M131.55 0H8.98264C8.18205 0.0118264 7.38348 0.0840294 6.59365 0.216C5.80206 0.345676 5.036 0.600856 4.32411 0.972C3.60457 1.33665 2.95057 1.81927 2.38903 2.4C1.81521 2.96506 1.33889 3.62202 0.979522 4.344C0.617111 5.06213 0.36347 5.83061 0.22699 6.624C0.0936895 7.41702 0.0257709 8.21975 0.0239258 9.024C0.0239258 9.396 0.0239258 9.768 0.0239258 10.128V37.872C0.0239258 38.244 0.0239258 38.604 0.0239258 38.976C0.0257709 39.7802 0.0936895 40.583 0.22699 41.376C0.361612 42.1737 0.615313 42.9464 0.979522 43.668C1.34222 44.3844 1.81824 45.0368 2.38903 45.6C2.9515 46.1765 3.60544 46.655 4.32411 47.016C5.03825 47.3818 5.80346 47.6367 6.59365 47.772C7.38348 47.904 8.18205 47.9762 8.98264 47.988H133.951C134.751 47.9762 135.55 47.904 136.34 47.772C137.133 47.635 137.902 47.3802 138.621 47.016C139.338 46.6518 139.991 46.1737 140.556 45.6C141.12 45.0306 141.595 44.3793 141.966 43.668C142.325 42.9452 142.574 42.1727 142.706 41.376C142.838 40.5825 142.91 39.7803 142.921 38.976C142.921 38.604 142.921 38.244 142.921 37.872V10.128C142.921 9.768 142.921 9.396 142.921 9.024C142.91 8.21972 142.838 7.41747 142.706 6.624C142.574 5.83116 142.324 5.06267 141.966 4.344C141.224 2.90323 140.055 1.72923 138.621 0.984C137.902 0.619785 137.133 0.364999 136.34 0.228C135.55 0.0960294 134.751 0.0238264 133.951 0.012H131.562L131.55 0Z" fill="white"/>
<path d="M10.0814 46.9441H9.0064C8.2592 46.9562 7.51223 46.908 6.77269 46.8001C6.07488 46.6645 5.40205 46.4217 4.77789 46.0801C4.16547 45.7696 3.60523 45.3647 3.11754 44.8801C2.62911 44.3908 2.2254 43.823 1.92304 43.2001C1.60319 42.5741 1.38158 41.9022 1.26607 41.2081C1.14863 40.4657 1.08476 39.7158 1.07495 38.9641C1.07495 38.7121 1.07495 37.8601 1.07495 37.8601V10.1281C1.07495 10.1281 1.07495 9.30012 1.07495 9.06012C1.08476 8.30847 1.14863 7.55851 1.26607 6.81611C1.37541 6.11451 1.59304 5.43433 1.9111 4.80012C2.21698 4.17937 2.6203 3.61212 3.10559 3.12012C3.59805 2.63582 4.16216 2.23103 4.77789 1.92012C5.40104 1.59878 6.06989 1.37616 6.76075 1.26012C7.50293 1.13549 8.25393 1.07128 9.0064 1.06812H133.939C134.683 1.07854 135.425 1.14271 136.16 1.26012C136.855 1.3779 137.527 1.60041 138.155 1.92012C139.39 2.55577 140.396 3.56255 141.034 4.80012C141.345 5.42468 141.562 6.09186 141.679 6.78012C141.8 7.52625 141.868 8.2802 141.882 9.03612V10.1041C141.882 10.5601 141.882 10.9921 141.882 11.4241V36.5521C141.882 36.9961 141.882 37.4161 141.882 37.8481V38.9641C141.868 39.7081 141.8 40.4501 141.679 41.1841C141.568 41.8814 141.35 42.5574 141.034 43.1881C140.723 43.8023 140.32 44.3649 139.839 44.8561C139.349 45.3432 138.785 45.7483 138.167 46.0561C137.545 46.4078 136.872 46.6589 136.172 46.8001C135.434 46.9236 134.687 46.9878 133.939 46.9921H10.0814V46.9441Z" fill="black"/>
<path d="M29.8624 23.8679C29.8745 22.8258 30.1493 21.8037 30.6611 20.8972C31.1728 19.9907 31.9049 19.2292 32.7889 18.6839C32.2272 17.8798 31.4868 17.2183 30.6263 16.7517C29.7659 16.2851 28.8091 16.0264 27.8317 15.9959C25.7414 15.7679 23.7227 17.1959 22.6596 17.1959C21.5965 17.1959 19.9361 15.9959 18.1802 15.9959C17.0397 16.0317 15.9278 16.3633 14.9524 16.9584C13.9771 17.5534 13.1715 18.3917 12.6139 19.3919C10.2249 23.5799 12.0047 29.7119 14.3101 33.0959C15.5046 34.7519 16.8066 36.5879 18.5625 36.5279C20.3184 36.4679 20.9515 35.4239 23.0179 35.4239C25.0844 35.4239 25.6817 36.5279 27.4734 36.4919C29.2651 36.4559 30.4835 34.8239 31.5944 33.1559C32.4097 31.9952 33.0348 30.711 33.4459 29.3519C32.3776 28.8936 31.4677 28.1288 30.8302 27.1532C30.1928 26.1777 29.8561 25.0348 29.8624 23.8679Z" fill="white"/>
<path d="M26.4701 13.7759C27.4738 12.5577 27.9702 10.9971 27.8557 9.41992C26.3227 9.58337 24.9071 10.3202 23.89 11.4839C23.3896 12.0556 23.0064 12.7208 22.7625 13.4416C22.5186 14.1623 22.4187 14.9243 22.4685 15.6839C23.2354 15.6886 23.9934 15.5194 24.6862 15.1891C25.379 14.8587 25.9888 14.3757 26.4701 13.7759Z" fill="white"/>
<path d="M50.5271 32.5678H44.8772L43.5155 36.5998H41.1265L46.4778 21.6958H48.9743L54.3256 36.5998H51.9366L50.5271 32.5678ZM45.4625 30.7078H49.9418L47.7798 24.1678H47.7201L45.4625 30.7078Z" fill="white"/>
<path d="M65.8883 31.1998C65.8883 34.5718 64.0846 36.7438 61.3731 36.7438C60.681 36.7746 59.9943 36.6085 59.3921 36.2646C58.7898 35.9207 58.2965 35.413 57.9688 34.7998V40.1758H55.6992V25.7758H57.8493V27.5998C58.1975 26.9955 58.7026 26.4977 59.3106 26.1595C59.9187 25.8213 60.6068 25.6555 61.3014 25.6798C64.0726 25.6198 65.8883 27.7918 65.8883 31.1998ZM63.6068 31.1998C63.6068 29.0038 62.4123 27.5998 60.7519 27.5998C59.0916 27.5998 57.909 29.0758 57.909 31.1998C57.909 33.3238 59.1035 34.8598 60.7519 34.8598C62.4003 34.8598 63.6068 33.4198 63.6068 31.1998Z" fill="white"/>
<path d="M77.7855 31.1999C77.7855 34.5719 75.9938 36.7439 73.2823 36.7439C72.5897 36.7776 71.9019 36.6127 71.2991 36.2685C70.6963 35.9243 70.2034 35.415 69.8779 34.7999V40.1759H67.6084V25.7759H69.7465V27.5999C70.0918 26.9957 70.5946 26.4976 71.2008 26.1592C71.807 25.8209 72.4936 25.6552 73.1867 25.6799C75.9818 25.6199 77.7855 27.7919 77.7855 31.1999ZM75.504 31.1999C75.504 29.0039 74.3812 27.5999 72.6492 27.5999C70.9172 27.5999 69.8182 29.0759 69.8182 31.1999C69.8182 33.3239 70.953 34.7999 72.6492 34.7999C74.3454 34.7999 75.504 33.3839 75.504 31.1999Z" fill="white"/>
<path d="M85.6572 32.3999C85.8245 33.8759 87.2459 34.7999 89.2407 34.7999C91.2355 34.7999 92.4539 33.8279 92.4539 32.4959C92.4539 31.1639 91.6417 30.6479 89.7185 30.1679L87.7954 29.6999C85.0719 29.0399 83.8058 27.7679 83.8058 25.6919C83.8058 23.1119 86.0395 21.3479 89.2049 21.3479C92.3703 21.3479 94.4965 23.1119 94.5682 25.6919H92.2867C92.1553 24.2039 90.925 23.2919 89.1452 23.2919C87.3654 23.2919 86.1231 24.1919 86.1231 25.5239C86.1231 26.5679 86.9115 27.1919 88.8227 27.6719L90.4591 28.0679C93.5051 28.7879 94.7593 30.0239 94.7593 32.1959C94.7593 34.9919 92.5495 36.7319 89.0377 36.7319C85.7528 36.7319 83.531 35.0279 83.3877 32.3399L85.6572 32.3999Z" fill="white"/>
<path d="M99.5612 23.1599V25.7279H101.616V27.4919H99.5612V33.4919C99.5612 34.4159 99.9673 34.8479 100.875 34.8479C101.114 34.8479 101.365 34.8479 101.604 34.8479V36.5999C101.21 36.6751 100.81 36.7113 100.409 36.7079C98.2114 36.7079 97.3633 35.8799 97.3633 33.7679V27.4919H95.7507V25.7279H97.3275V23.1599H99.5612Z" fill="white"/>
<path d="M102.798 31.1998C102.798 27.7798 104.805 25.6318 107.935 25.6318C111.064 25.6318 113.059 27.7798 113.059 31.1998C113.059 34.6198 111.088 36.7318 107.935 36.7318C104.781 36.7318 102.798 34.5958 102.798 31.1998ZM110.801 31.1998C110.801 28.8598 109.726 27.4678 107.935 27.4678C106.143 27.4678 105.116 28.7998 105.116 31.1998C105.116 33.5998 106.179 34.9318 107.982 34.9318C109.786 34.9318 110.849 33.5518 110.849 31.1998H110.801Z" fill="white"/>
<path d="M114.898 25.7279H117.06V27.5999C117.205 27.0232 117.543 26.5141 118.017 26.158C118.491 25.8018 119.073 25.6203 119.664 25.6439C119.918 25.6415 120.17 25.6697 120.417 25.7279V27.8159C120.11 27.6868 119.782 27.6137 119.449 27.5999C119.151 27.5804 118.851 27.6212 118.568 27.7199C118.285 27.8185 118.025 27.973 117.802 28.1743C117.579 28.3756 117.399 28.6195 117.272 28.8918C117.144 29.1641 117.073 29.4593 117.06 29.7599C117.06 29.8679 117.06 29.9879 117.06 30.1079V36.5999H114.898V25.7279Z" fill="white"/>
<path d="M130.654 33.4079C130.355 35.3759 128.444 36.7319 125.995 36.7319C122.854 36.7319 120.907 34.6079 120.907 31.2119C120.907 27.8159 122.866 25.5959 125.912 25.5959C128.958 25.5959 130.785 27.6599 130.785 30.9599V31.7159H123.14V31.8599C123.077 32.6058 123.311 33.3465 123.79 33.9199C124.269 34.4933 124.955 34.8528 125.697 34.9199H126.055C126.579 34.9691 127.105 34.8474 127.554 34.5729C128.004 34.2984 128.354 33.8857 128.552 33.3959L130.654 33.4079ZM123.152 30.1559H128.563C128.599 29.4639 128.36 28.7858 127.899 28.2706C127.438 27.7554 126.792 27.4452 126.103 27.4079H125.912C125.551 27.4048 125.194 27.4731 124.86 27.6091C124.526 27.745 124.223 27.9458 123.966 28.2001C123.71 28.4543 123.506 28.7569 123.366 29.0905C123.227 29.424 123.154 29.7821 123.152 30.1439V30.1559Z" fill="white"/>
<path d="M45.1878 10.4759C46.02 10.4197 46.8407 10.6957 47.4714 11.244C48.1022 11.7923 48.492 12.5685 48.5563 13.4039C48.5801 13.6153 48.5801 13.8286 48.5563 14.0399C48.5563 16.3199 47.3618 17.6399 45.2117 17.6399H42.6077V10.4399L45.1878 10.4759ZM43.7185 16.6199H45.0564C45.3518 16.6411 45.6484 16.603 45.929 16.508C46.2096 16.4129 46.4686 16.2628 46.6909 16.0662C46.9132 15.8697 47.0944 15.6307 47.2239 15.3632C47.3534 15.0957 47.4287 14.805 47.4454 14.5079C47.4573 14.3562 47.4573 14.2037 47.4454 14.0519C47.4858 13.758 47.468 13.4589 47.3932 13.1719C47.3183 12.8848 47.1878 12.6154 47.0092 12.3791C46.8306 12.1428 46.6073 11.9442 46.3521 11.7947C46.0969 11.6452 45.8149 11.5478 45.5222 11.5079C45.3791 11.496 45.2353 11.496 45.0922 11.5079H43.7185V16.6199Z" fill="white"/>
<path d="M49.7866 14.928C49.7233 14.2517 49.9299 13.5778 50.3611 13.0546C50.7924 12.5313 51.4128 12.2016 52.086 12.138C52.7592 12.0743 53.43 12.2819 53.9508 12.7152C54.4717 13.1484 54.7999 13.7717 54.8632 14.448C54.8752 14.6078 54.8752 14.7682 54.8632 14.928C54.8844 15.5794 54.6581 16.2146 54.2304 16.7047C53.8026 17.1947 53.2054 17.5031 52.5597 17.5672C51.9141 17.6313 51.2683 17.4463 50.7534 17.0498C50.2384 16.6534 49.8928 16.075 49.7866 15.432C49.7747 15.2642 49.7747 15.0958 49.7866 14.928ZM53.7643 14.928C53.7643 13.728 53.2507 13.08 52.3309 13.08C51.4111 13.08 50.8855 13.764 50.8855 14.928C50.8855 16.092 51.3634 16.8 52.3309 16.8C53.2984 16.8 53.7643 16.116 53.7643 14.94V14.928Z" fill="white"/>
<path d="M61.6002 17.64H60.5012L59.3903 13.656H59.3067L58.1959 17.64H57.1089L55.6277 12.228H56.7027L57.6703 16.356H57.7419L58.8528 12.228H59.8681L60.979 16.356H61.0626L62.0182 12.228H63.0813L61.6002 17.64Z" fill="white"/>
<path d="M64.3237 12.228H65.351V13.092H65.4346C65.5667 12.783 65.7925 12.5238 66.08 12.3514C66.3674 12.179 66.7017 12.1022 67.0352 12.132C67.2644 12.114 67.4948 12.1417 67.7133 12.2135C67.9317 12.2853 68.1339 12.3997 68.3082 12.5503C68.4825 12.7008 68.6254 12.8845 68.7288 13.0907C68.8322 13.297 68.8939 13.5217 68.9106 13.752C68.9226 13.8797 68.9226 14.0083 68.9106 14.136V17.64H67.8475V14.4C67.8475 13.524 67.4652 13.092 66.653 13.092C66.4882 13.0787 66.3226 13.0999 66.1665 13.1543C66.0103 13.2086 65.8671 13.2949 65.7458 13.4077C65.6246 13.5204 65.528 13.6573 65.462 13.8095C65.3961 13.9617 65.3624 14.126 65.3629 14.292V17.64H64.2998L64.3237 12.228Z" fill="white"/>
<path d="M70.5828 10.1279H71.6698V17.6399H70.6067L70.5828 10.1279Z" fill="white"/>
<path d="M73.127 14.928C73.0637 14.2517 73.2703 13.5778 73.7015 13.0546C74.1328 12.5313 74.7532 12.2016 75.4264 12.138C76.0996 12.0743 76.7704 12.2819 77.2912 12.7152C77.8121 13.1484 78.1403 13.7717 78.2036 14.448C78.2156 14.6078 78.2156 14.7682 78.2036 14.928C78.2248 15.5794 77.9985 16.2146 77.5708 16.7047C77.143 17.1947 76.5458 17.5031 75.9001 17.5672C75.2545 17.6313 74.6087 17.4463 74.0938 17.0498C73.5788 16.6534 73.2332 16.075 73.127 15.432C73.1032 15.2648 73.1032 15.0951 73.127 14.928ZM77.1047 14.928C77.1047 13.728 76.5791 13.08 75.6593 13.08C74.7396 13.08 74.226 13.764 74.226 14.928C74.226 16.092 74.7396 16.8 75.6593 16.8C76.5791 16.8 77.1047 16.104 77.1047 14.928Z" fill="white"/>
<path d="M79.3145 16.1039C79.3145 15.1319 80.0312 14.5799 81.3212 14.4959L82.7785 14.3999V13.9319C82.7785 13.3679 82.3963 13.0439 81.6676 13.0439C80.939 13.0439 80.6642 13.2599 80.5567 13.6439H79.5175C79.637 12.7079 80.497 12.1199 81.7154 12.1199C82.9338 12.1199 83.8296 12.7919 83.8296 13.9319V17.6399H82.8024V16.8719H82.7188C82.5523 17.1476 82.3142 17.3725 82.0301 17.5226C81.7461 17.6727 81.4267 17.7423 81.1062 17.7239C80.8942 17.7471 80.6798 17.7279 80.4753 17.6673C80.2707 17.6068 80.0802 17.506 79.9147 17.371C79.7492 17.236 79.6119 17.0693 79.511 16.8806C79.41 16.692 79.3473 16.4851 79.3264 16.2719C79.3165 16.2165 79.3125 16.1601 79.3145 16.1039ZM82.7785 15.5999V15.1439L81.4645 15.2279C80.724 15.2279 80.3776 15.5399 80.3776 16.0079C80.3776 16.4759 80.8076 16.7759 81.3809 16.7759C81.5464 16.7925 81.7135 16.7761 81.8728 16.7278C82.032 16.6795 82.1801 16.6001 82.3088 16.4942C82.4375 16.3884 82.5441 16.2581 82.6227 16.1108C82.7012 15.9635 82.7501 15.8021 82.7665 15.6359L82.7785 15.5999Z" fill="white"/>
<path d="M85.2273 14.9279C85.2273 13.2239 86.0993 12.1439 87.461 12.1439C87.7971 12.128 88.1307 12.2087 88.4227 12.3766C88.7147 12.5446 88.9529 12.7927 89.1094 13.0919H89.1811V10.1279H90.2442V17.6399H89.2289V16.7999H89.1452C88.9749 17.0943 88.7283 17.3367 88.4318 17.5016C88.1352 17.6664 87.7997 17.7474 87.461 17.7359C86.0873 17.7239 85.2273 16.6439 85.2273 14.9279ZM86.3262 14.9279C86.3262 16.1279 86.8638 16.7639 87.7596 16.7639C88.6555 16.7639 89.205 16.0679 89.205 14.9399C89.205 13.8119 88.6436 13.1039 87.7596 13.1039C86.8757 13.1039 86.3262 13.7999 86.3262 14.9279Z" fill="white"/>
<path d="M94.6399 14.928C94.5765 14.2517 94.7832 13.5778 95.2144 13.0546C95.6456 12.5313 96.2661 12.2016 96.9393 12.138C97.6125 12.0743 98.2833 12.2819 98.8041 12.7152C99.3249 13.1484 99.6531 13.7717 99.7165 14.448C99.7284 14.6078 99.7284 14.7682 99.7165 14.928C99.7376 15.5794 99.5114 16.2146 99.0836 16.7047C98.6559 17.1947 98.0587 17.5031 97.413 17.5672C96.7674 17.6313 96.1216 17.4463 95.6067 17.0498C95.0917 16.6534 94.7461 16.075 94.6399 15.432C94.6279 15.2642 94.6279 15.0958 94.6399 14.928ZM98.6176 14.928C98.6176 13.728 98.092 13.08 97.1842 13.08C96.2763 13.08 95.7388 13.764 95.7388 14.928C95.7388 16.092 96.2525 16.8 97.1842 16.8C98.1159 16.8 98.6176 16.104 98.6176 14.928Z" fill="white"/>
<path d="M101.138 12.2278H102.153V13.0918H102.237C102.371 12.7818 102.599 12.5222 102.889 12.3499C103.178 12.1776 103.514 12.1013 103.849 12.1318C104.312 12.0987 104.768 12.2504 105.119 12.5538C105.47 12.8573 105.688 13.2879 105.725 13.7518C105.737 13.8795 105.737 14.0081 105.725 14.1358V17.6398H104.674V14.3998C104.674 13.5238 104.291 13.0918 103.479 13.0918C103.314 13.0786 103.149 13.0998 102.993 13.1541C102.836 13.2084 102.693 13.2947 102.572 13.4075C102.451 13.5203 102.354 13.6571 102.288 13.8093C102.222 13.9615 102.189 14.1258 102.189 14.2918C102.183 14.3517 102.183 14.412 102.189 14.4718V17.6398H101.126L101.138 12.2278Z" fill="white"/>
<path d="M111.709 10.884V12.264H112.904V13.2H111.709V15.984C111.709 16.548 111.936 16.8 112.462 16.8H112.868V17.688C112.677 17.7059 112.485 17.7059 112.295 17.688C111.1 17.688 110.646 17.268 110.646 16.236V13.2H109.786V12.312H110.646V10.884H111.709Z" fill="white"/>
<path d="M114.313 10.1279H115.376V13.1039H115.46C115.597 12.7981 115.824 12.5414 116.11 12.3678C116.396 12.1942 116.727 12.112 117.061 12.1319C117.293 12.119 117.525 12.1522 117.745 12.2297C117.964 12.3071 118.166 12.4274 118.339 12.5834C118.512 12.7395 118.653 12.9283 118.754 13.1392C118.854 13.35 118.912 13.5786 118.924 13.8119C118.936 13.9236 118.936 14.0363 118.924 14.1479V17.6399H117.861V14.3999C117.861 13.5359 117.467 13.1039 116.666 13.1039C116.498 13.0892 116.328 13.1089 116.167 13.1618C116.006 13.2148 115.858 13.2999 115.731 13.412C115.603 13.5241 115.5 13.6609 115.427 13.8142C115.354 13.9675 115.312 14.1341 115.305 14.3039V17.6399H114.313V10.1279Z" fill="white"/>
<path d="M125.135 16.176C124.991 16.6814 124.67 17.1174 124.231 17.404C123.792 17.6905 123.265 17.8084 122.746 17.736C122.423 17.7522 122.099 17.7022 121.795 17.5889C121.492 17.4756 121.214 17.3014 120.979 17.0769C120.745 16.8524 120.558 16.5823 120.431 16.283C120.303 15.9837 120.238 15.6615 120.238 15.336C120.226 15.2042 120.226 15.0717 120.238 14.94C120.194 14.6161 120.215 14.2867 120.298 13.9707C120.381 13.6547 120.526 13.3583 120.723 13.0986C120.921 12.8388 121.167 12.6208 121.449 12.457C121.731 12.2932 122.042 12.1868 122.364 12.144C122.483 12.132 122.603 12.132 122.722 12.144C124.216 12.144 125.111 13.164 125.111 14.868V15.24H121.325V15.3C121.314 15.4899 121.341 15.6801 121.404 15.8593C121.468 16.0386 121.566 16.2031 121.695 16.3431C121.823 16.4831 121.978 16.5957 122.15 16.6742C122.323 16.7527 122.509 16.7955 122.699 16.8H122.83C123.086 16.829 123.344 16.7819 123.574 16.6646C123.803 16.5472 123.993 16.3648 124.12 16.14L125.135 16.176ZM121.409 14.4H124.12C124.143 14.0568 124.031 13.7182 123.807 13.4577C123.584 13.1972 123.267 13.0356 122.926 13.008H122.794C122.427 13.008 122.074 13.1546 121.814 13.4157C121.555 13.6767 121.409 14.0308 121.409 14.4Z" fill="white"/>
</g>
<defs>
<clipPath id="clip0_52_246">
<rect width="142.933" height="48" fill="white"/>
</clipPath>
</defs>
</svg>
