<svg width="162" height="48" viewBox="0 0 162 48" fill="none" xmlns="http://www.w3.org/2000/svg">
<g clip-path="url(#clip0_1_87)">
<rect x="0.93335" width="161.067" height="48" rx="6" fill="black"/>
<path d="M156.035 0.96C158.779 0.96 161.046 3.24 161.046 6V42C161.046 44.76 158.779 47.04 156.035 47.04H6.89878C4.15468 47.04 1.88782 44.76 1.88782 42V6C1.88782 3.24 4.15468 0.96 6.89878 0.96H156.035ZM156.035 0H6.89878C3.55814 0 0.93335 2.76 0.93335 6V42C0.93335 45.36 3.55814 48 6.89878 48H156.035C159.375 48 162 45.36 162 42V6C162 2.76 159.375 0 156.035 0Z" fill="black"/>
<path d="M57.4856 12.24C57.4856 13.2 57.247 14.04 56.6505 14.64C55.9346 15.36 55.0995 15.72 54.0257 15.72C52.9519 15.72 52.1168 15.36 51.4009 14.64C50.6851 13.92 50.3271 13.08 50.3271 12C50.3271 10.92 50.6851 10.08 51.4009 9.36003C52.1168 8.64003 52.9519 8.28003 54.0257 8.28003C54.5029 8.28003 54.9802 8.40003 55.4574 8.64003C55.9346 8.88003 56.2926 9.12003 56.5312 9.48003L55.9346 10.08C55.4574 9.48003 54.8609 9.24003 54.0257 9.24003C53.3098 9.24003 52.594 9.48003 52.1168 10.08C51.5202 10.56 51.2816 11.28 51.2816 12.12C51.2816 12.96 51.5202 13.68 52.1168 14.16C52.7133 14.64 53.3098 15 54.0257 15C54.8609 15 55.4574 14.76 56.0539 14.16C56.4119 13.8 56.6505 13.32 56.6505 12.72H54.0257V11.76H57.4856C57.4856 11.88 57.4856 12.12 57.4856 12.24Z" fill="white"/>
<path d="M62.9738 9.24015H59.7525V11.5201H62.7352V12.3601H59.7525V14.6401H62.9738V15.6001H58.798V8.40015H62.9738V9.24015Z" fill="white"/>
<path d="M66.911 15.6001H65.9566V9.24015H63.9283V8.40015H68.9393V9.24015H66.911V15.6001Z" fill="white"/>
<path d="M72.3992 15.6001V8.40015H73.3537V15.6001H72.3992Z" fill="white"/>
<path d="M77.4102 15.6001H76.4557V9.24015H74.4275V8.40015H79.3191V9.24015H77.2909V15.6001H77.4102Z" fill="white"/>
<path d="M88.7445 14.64C88.0287 15.36 87.1935 15.72 86.1197 15.72C85.0459 15.72 84.2108 15.36 83.4949 14.64C82.7791 13.92 82.4212 13.08 82.4212 12C82.4212 10.92 82.7791 10.08 83.4949 9.36003C84.2108 8.64003 85.0459 8.28003 86.1197 8.28003C87.1935 8.28003 88.0287 8.64003 88.7445 9.36003C89.4604 10.08 89.8183 10.92 89.8183 12C89.8183 13.08 89.4604 13.92 88.7445 14.64ZM84.2108 14.04C84.688 14.52 85.4039 14.88 86.1197 14.88C86.8356 14.88 87.5514 14.64 88.0287 14.04C88.5059 13.56 88.8638 12.84 88.8638 12C88.8638 11.16 88.6252 10.44 88.0287 9.96003C87.5514 9.48003 86.8356 9.12003 86.1197 9.12003C85.4039 9.12003 84.688 9.36003 84.2108 9.96003C83.7336 10.44 83.3756 11.16 83.3756 12C83.3756 12.84 83.6142 13.56 84.2108 14.04Z" fill="white"/>
<path d="M91.1307 15.6001V8.40015H92.2045L95.6644 14.0401V12.6001V8.40015H96.6189V15.6001H95.6644L91.9658 9.72015V11.1601V15.6001H91.1307Z" fill="white"/>
<path d="M82.1825 26.16C79.3191 26.16 77.0523 28.32 77.0523 31.32C77.0523 34.2 79.3191 36.48 82.1825 36.48C85.0459 36.48 87.3128 34.32 87.3128 31.32C87.3128 28.2 85.0459 26.16 82.1825 26.16ZM82.1825 34.32C80.6315 34.32 79.3191 33 79.3191 31.2C79.3191 29.4 80.6315 28.08 82.1825 28.08C83.7335 28.08 85.0459 29.28 85.0459 31.2C85.0459 33 83.7335 34.32 82.1825 34.32ZM71.0868 26.16C68.2234 26.16 65.9566 28.32 65.9566 31.32C65.9566 34.2 68.2234 36.48 71.0868 36.48C73.9502 36.48 76.2171 34.32 76.2171 31.32C76.2171 28.2 73.9502 26.16 71.0868 26.16ZM71.0868 34.32C69.5358 34.32 68.2234 33 68.2234 31.2C68.2234 29.4 69.5358 28.08 71.0868 28.08C72.6378 28.08 73.9502 29.28 73.9502 31.2C73.9502 33 72.6378 34.32 71.0868 34.32ZM57.8436 27.72V29.88H62.9738C62.8545 31.08 62.3773 32.04 61.7808 32.64C61.0649 33.36 59.8718 34.2 57.8436 34.2C54.6222 34.2 52.2361 31.68 52.2361 28.44C52.2361 25.2 54.7415 22.68 57.8436 22.68C59.5139 22.68 60.8263 23.4 61.7808 24.24L63.3318 22.68C62.0194 21.48 60.3491 20.52 57.9629 20.52C53.6678 20.52 49.9692 24.12 49.9692 28.44C49.9692 32.76 53.6678 36.36 57.9629 36.36C60.3491 36.36 62.0194 35.64 63.4511 34.08C64.8828 32.64 65.36 30.6 65.36 29.04C65.36 28.56 65.36 28.08 65.2407 27.72H57.8436ZM112.01 29.4C111.532 28.2 110.339 26.16 107.715 26.16C105.09 26.16 102.942 28.2 102.942 31.32C102.942 34.2 105.09 36.48 107.953 36.48C110.22 36.48 111.652 35.04 112.129 34.2L110.459 33C109.862 33.84 109.146 34.44 107.953 34.44C106.76 34.44 106.044 33.96 105.448 32.88L112.248 30L112.01 29.4ZM105.09 31.08C105.09 29.16 106.641 28.08 107.715 28.08C108.55 28.08 109.385 28.56 109.624 29.16L105.09 31.08ZM99.4823 36H101.749V21H99.4823V36ZM95.903 27.24C95.3065 26.64 94.352 26.04 93.1589 26.04C90.6535 26.04 88.2673 28.32 88.2673 31.2C88.2673 34.08 90.5341 36.24 93.1589 36.24C94.352 36.24 95.3065 35.64 95.7837 35.04H95.903V35.76C95.903 37.68 94.8293 38.76 93.1589 38.76C91.8465 38.76 90.8921 37.8 90.6534 36.96L88.7445 37.8C89.3411 39.12 90.7728 40.8 93.2782 40.8C95.903 40.8 98.0506 39.24 98.0506 35.52V26.4H95.903V27.24ZM93.2782 34.32C91.7272 34.32 90.4148 33 90.4148 31.2C90.4148 29.4 91.7272 28.08 93.2782 28.08C94.8293 28.08 96.0223 29.4 96.0223 31.2C96.0223 33 94.8293 34.32 93.2782 34.32ZM122.39 21H117.021V36H119.288V30.36H122.39C124.895 30.36 127.281 28.56 127.281 25.68C127.281 22.8 124.895 21 122.39 21ZM122.509 28.2H119.288V23.04H122.509C124.179 23.04 125.134 24.48 125.134 25.56C125.014 26.88 124.06 28.2 122.509 28.2ZM136.229 26.04C134.559 26.04 132.889 26.76 132.292 28.32L134.32 29.16C134.798 28.32 135.513 28.08 136.349 28.08C137.542 28.08 138.616 28.8 138.735 30V30.12C138.377 29.88 137.422 29.52 136.468 29.52C134.32 29.52 132.173 30.72 132.173 32.88C132.173 34.92 133.962 36.24 135.871 36.24C137.422 36.24 138.138 35.52 138.735 34.8H138.854V36H141.002V30.24C140.763 27.6 138.735 26.04 136.229 26.04ZM135.991 34.32C135.275 34.32 134.201 33.96 134.201 33C134.201 31.8 135.513 31.44 136.587 31.44C137.542 31.44 138.019 31.68 138.616 31.92C138.377 33.36 137.184 34.32 135.991 34.32ZM148.518 26.4L146.013 32.88H145.893L143.269 26.4H140.882L144.82 35.52L142.553 40.56H144.82L150.904 26.4H148.518ZM128.474 36H130.741V21H128.474V36Z" fill="white"/>
<path d="M13.3414 9C12.9835 9.36 12.8642 9.96 12.8642 10.68V37.2C12.8642 37.92 13.1028 38.52 13.4608 38.88L13.5801 39L28.3743 24.12V24V23.88L13.3414 9Z" fill="white" stroke="black" stroke-miterlimit="10"/>
<path d="M33.1467 29.16L28.255 24.24V24V23.88L33.1467 18.96L33.266 19.08L39.1121 22.44C40.7824 23.4 40.7824 24.96 39.1121 25.92L33.1467 29.16Z" fill="white" stroke="black" stroke-miterlimit="10"/>
<path d="M33.266 29.04L28.255 24L13.3414 39C13.938 39.6 14.7732 39.6 15.8469 39.12L33.266 29.04Z" fill="white" stroke="black" stroke-miterlimit="10"/>
<path d="M33.266 18.9599L15.8469 8.99994C14.7732 8.39994 13.938 8.51994 13.3414 9.11994L28.255 23.9999L33.266 18.9599Z" fill="white" stroke="black" stroke-miterlimit="10"/>
</g>
<defs>
<clipPath id="clip0_1_87">
<rect x="0.93335" width="161.067" height="48" rx="6" fill="white"/>
</clipPath>
</defs>
</svg>
