<svg width="162" height="48" viewBox="0 0 162 48" fill="none" xmlns="http://www.w3.org/2000/svg">
<g clip-path="url(#clip0_52_228)">
<path d="M156.035 0.96C158.779 0.96 161.046 3.24 161.046 6V42C161.046 44.76 158.779 47.04 156.035 47.04H6.89903C4.15493 47.04 1.88806 44.76 1.88806 42V6C1.88806 3.24 4.15493 0.96 6.89903 0.96H156.035ZM156.035 0H6.89903C3.55838 0 0.933594 2.76 0.933594 6V42C0.933594 45.36 3.55838 48 6.89903 48H156.035C159.375 48 162 45.36 162 42V6C162 2.76 159.375 0 156.035 0Z" fill="black"/>
<path d="M57.4859 12.24C57.4859 13.2 57.2473 14.04 56.6507 14.64C55.9349 15.36 55.0997 15.72 54.026 15.72C52.9522 15.72 52.117 15.36 51.4012 14.64C50.6853 13.92 50.3274 13.08 50.3274 12C50.3274 10.92 50.6853 10.08 51.4012 9.36003C52.117 8.64003 52.9522 8.28003 54.026 8.28003C54.5032 8.28003 54.9804 8.40003 55.4577 8.64003C55.9349 8.88003 56.2928 9.12003 56.5314 9.48003L55.9349 10.08C55.4577 9.48003 54.8611 9.24003 54.026 9.24003C53.3101 9.24003 52.5943 9.48003 52.117 10.08C51.5205 10.56 51.2819 11.28 51.2819 12.12C51.2819 12.96 51.5205 13.68 52.117 14.16C52.7136 14.64 53.3101 15 54.026 15C54.8611 15 55.4577 14.76 56.0542 14.16C56.4121 13.8 56.6507 13.32 56.6507 12.72H54.026V11.76H57.4859C57.4859 11.88 57.4859 12.12 57.4859 12.24Z" fill="black"/>
<path d="M62.9741 9.24015H59.7528V11.5201H62.7355V12.3601H59.7528V14.6401H62.9741V15.6001H58.7983V8.40015H62.9741V9.24015Z" fill="black"/>
<path d="M66.9112 15.6001H65.9567V9.24015H63.9285V8.40015H68.9394V9.24015H66.9112V15.6001Z" fill="black"/>
<path d="M72.3994 15.6001V8.40015H73.3539V15.6001H72.3994Z" fill="black"/>
<path d="M77.4105 15.6001H76.456V9.24015H74.4277V8.40015H79.3194V9.24015H77.2911V15.6001H77.4105Z" fill="black"/>
<path d="M88.7447 14.64C88.0289 15.36 87.1937 15.72 86.12 15.72C85.0462 15.72 84.211 15.36 83.4952 14.64C82.7793 13.92 82.4214 13.08 82.4214 12C82.4214 10.92 82.7793 10.08 83.4952 9.36003C84.211 8.64003 85.0462 8.28003 86.12 8.28003C87.1937 8.28003 88.0289 8.64003 88.7447 9.36003C89.4606 10.08 89.8185 10.92 89.8185 12C89.8185 13.08 89.4606 13.92 88.7447 14.64ZM84.211 14.04C84.6883 14.52 85.4041 14.88 86.12 14.88C86.8358 14.88 87.5517 14.64 88.0289 14.04C88.5061 13.56 88.864 12.84 88.864 12C88.864 11.16 88.6254 10.44 88.0289 9.96003C87.5517 9.48003 86.8358 9.12003 86.12 9.12003C85.4041 9.12003 84.6883 9.36003 84.211 9.96003C83.7338 10.44 83.3759 11.16 83.3759 12C83.3759 12.84 83.6145 13.56 84.211 14.04Z" fill="black"/>
<path d="M91.1309 15.6001V8.40015H92.2046L95.6646 14.0401V12.6001V8.40015H96.6191V15.6001H95.6646L91.966 9.72015V11.1601V15.6001H91.1309Z" fill="black"/>
<path d="M82.1828 26.16C79.3194 26.16 77.0525 28.32 77.0525 31.32C77.0525 34.2 79.3194 36.48 82.1828 36.48C85.0462 36.48 87.3131 34.32 87.3131 31.32C87.3131 28.2 85.0462 26.16 82.1828 26.16ZM82.1828 34.32C80.6318 34.32 79.3194 33 79.3194 31.2C79.3194 29.4 80.6318 28.08 82.1828 28.08C83.7338 28.08 85.0462 29.28 85.0462 31.2C85.0462 33 83.7338 34.32 82.1828 34.32ZM71.0871 26.16C68.2237 26.16 65.9568 28.32 65.9568 31.32C65.9568 34.2 68.2237 36.48 71.0871 36.48C73.9505 36.48 76.2174 34.32 76.2174 31.32C76.2174 28.2 73.9505 26.16 71.0871 26.16ZM71.0871 34.32C69.5361 34.32 68.2237 33 68.2237 31.2C68.2237 29.4 69.5361 28.08 71.0871 28.08C72.6381 28.08 73.9505 29.28 73.9505 31.2C73.9505 33 72.6381 34.32 71.0871 34.32ZM57.8439 27.72V29.88H62.9741C62.8548 31.08 62.3776 32.04 61.781 32.64C61.0652 33.36 59.8721 34.2 57.8439 34.2C54.6225 34.2 52.2363 31.68 52.2363 28.44C52.2363 25.2 54.7418 22.68 57.8439 22.68C59.5142 22.68 60.8266 23.4 61.781 24.24L63.3321 22.68C62.0197 21.48 60.3493 20.52 57.9632 20.52C53.6681 20.52 49.9695 24.12 49.9695 28.44C49.9695 32.76 53.6681 36.36 57.9632 36.36C60.3493 36.36 62.0197 35.64 63.4514 34.08C64.8831 32.64 65.3603 30.6 65.3603 29.04C65.3603 28.56 65.3603 28.08 65.241 27.72H57.8439ZM112.01 29.4C111.533 28.2 110.34 26.16 107.715 26.16C105.09 26.16 102.943 28.2 102.943 31.32C102.943 34.2 105.09 36.48 107.953 36.48C110.22 36.48 111.652 35.04 112.129 34.2L110.459 33C109.862 33.84 109.147 34.44 107.953 34.44C106.76 34.44 106.045 33.96 105.448 32.88L112.249 30L112.01 29.4ZM105.09 31.08C105.09 29.16 106.641 28.08 107.715 28.08C108.55 28.08 109.385 28.56 109.624 29.16L105.09 31.08ZM99.4826 36H101.749V21H99.4826V36ZM95.9033 27.24C95.3068 26.64 94.3523 26.04 93.1592 26.04C90.6537 26.04 88.2676 28.32 88.2676 31.2C88.2676 34.08 90.5344 36.24 93.1592 36.24C94.3523 36.24 95.3068 35.64 95.784 35.04H95.9033V35.76C95.9033 37.68 94.8295 38.76 93.1592 38.76C91.8468 38.76 90.8923 37.8 90.6537 36.96L88.7448 37.8C89.3413 39.12 90.773 40.8 93.2785 40.8C95.9033 40.8 98.0509 39.24 98.0509 35.52V26.4H95.9033V27.24ZM93.2785 34.32C91.7275 34.32 90.4151 33 90.4151 31.2C90.4151 29.4 91.7275 28.08 93.2785 28.08C94.8295 28.08 96.0226 29.4 96.0226 31.2C96.0226 33 94.8295 34.32 93.2785 34.32ZM122.39 21H117.021V36H119.288V30.36H122.39C124.895 30.36 127.281 28.56 127.281 25.68C127.281 22.8 124.895 21 122.39 21ZM122.509 28.2H119.288V23.04H122.509C124.179 23.04 125.134 24.48 125.134 25.56C125.015 26.88 124.06 28.2 122.509 28.2ZM136.23 26.04C134.559 26.04 132.889 26.76 132.292 28.32L134.321 29.16C134.798 28.32 135.514 28.08 136.349 28.08C137.542 28.08 138.616 28.8 138.735 30V30.12C138.377 29.88 137.423 29.52 136.468 29.52C134.321 29.52 132.173 30.72 132.173 32.88C132.173 34.92 133.963 36.24 135.872 36.24C137.423 36.24 138.139 35.52 138.735 34.8H138.854V36H141.002V30.24C140.763 27.6 138.735 26.04 136.23 26.04ZM135.991 34.32C135.275 34.32 134.201 33.96 134.201 33C134.201 31.8 135.514 31.44 136.588 31.44C137.542 31.44 138.019 31.68 138.616 31.92C138.377 33.36 137.184 34.32 135.991 34.32ZM148.518 26.4L146.013 32.88H145.894L143.269 26.4H140.883L144.82 35.52L142.553 40.56H144.82L150.905 26.4H148.518ZM128.475 36H130.741V21H128.475V36Z" fill="black"/>
<path d="M13.3417 9C12.9838 9.36 12.8645 9.96 12.8645 10.68V37.2C12.8645 37.92 13.1031 38.52 13.461 38.88L13.5804 39L28.3746 24.12V24V23.88L13.3417 9Z" fill="black" stroke="white" stroke-miterlimit="10"/>
<path d="M33.147 29.16L28.2554 24.24V24V23.88L33.147 18.96L33.2663 19.08L39.1125 22.44C40.7828 23.4 40.7828 24.96 39.1125 25.92L33.147 29.16Z" fill="black" stroke="white" stroke-miterlimit="10"/>
<path d="M33.2663 29.04L28.2554 24L13.3418 39C13.9383 39.6 14.7735 39.6 15.8473 39.12L33.2663 29.04Z" fill="black" stroke="white" stroke-miterlimit="10"/>
<path d="M33.2663 18.9599L15.8473 8.99994C14.7735 8.39994 13.9383 8.51994 13.3418 9.11994L28.2554 23.9999L33.2663 18.9599Z" fill="black" stroke="white" stroke-miterlimit="10"/>
</g>
<defs>
<clipPath id="clip0_52_228">
<rect width="161.067" height="48" fill="white" transform="translate(0.933594)"/>
</clipPath>
</defs>
</svg>
