<svg width="485" height="233" viewBox="0 0 485 233" fill="none" xmlns="http://www.w3.org/2000/svg">
<path d="M482.34 31.7385C486.055 42.2688 483.173 54.7398 474.422 68.4022C465.678 82.0511 451.171 96.7295 431.978 111.549C393.602 141.182 336.679 171.238 270.305 194.658C203.931 218.078 140.751 230.4 92.2758 231.413C68.0328 231.92 47.526 229.596 32.1532 224.457C16.7652 219.312 6.69513 211.411 2.9795 200.881C-0.736121 190.351 2.14568 177.88 10.8976 164.217C19.641 150.569 34.1485 135.89 53.3412 121.07C91.7176 91.4379 148.64 61.382 215.014 37.9619C281.388 14.5417 344.569 2.21917 393.043 1.20616C417.286 0.69954 437.793 3.02317 453.166 8.1627C468.554 13.3073 478.624 21.2082 482.34 31.7385Z" stroke="#DBEA8D" stroke-width="2"/>
</svg>
