<svg width="247" height="145" viewBox="0 0 247 145" fill="none" xmlns="http://www.w3.org/2000/svg">
<path d="M244.821 11.6988C247.38 16.8052 246.588 23.3894 242.773 31.0165C238.963 38.6336 232.181 47.1965 222.946 56.172C204.48 74.1186 176.29 93.6335 142.749 110.446C109.208 127.259 76.7035 138.168 51.2748 142.224C38.5574 144.253 27.6388 144.562 19.2559 143.057C10.8622 141.549 5.11282 138.244 2.5532 133.138C-0.0064294 128.032 0.785821 121.447 4.60086 113.82C8.41093 106.203 15.1925 97.6403 24.4277 88.6648C42.8936 70.7182 71.0843 51.2033 104.625 34.3906C138.166 17.5779 170.67 6.66873 196.099 2.61273C208.816 0.584247 219.735 0.274679 228.118 1.78003C236.512 3.28735 242.261 6.59245 244.821 11.6988Z" stroke="#A2C1C4"/>
</svg>
