<svg width="134" height="45" viewBox="0 0 134 45" fill="none" xmlns="http://www.w3.org/2000/svg">
<g clip-path="url(#clip0_22_241)">
<path d="M123.328 0H8.42113C7.67058 0.0110872 6.92192 0.0787775 6.18146 0.2025C5.43934 0.324071 4.72116 0.563302 4.05376 0.91125C3.37919 1.25311 2.76607 1.70556 2.23962 2.25C1.70167 2.77975 1.25512 3.39564 0.91821 4.0725C0.57845 4.74575 0.340662 5.46619 0.212712 6.21C0.0877424 6.95346 0.0240687 7.70602 0.0223389 8.46C0.0223389 8.80875 0.0223389 9.1575 0.0223389 9.495V35.505C0.0223389 35.8537 0.0223389 36.1912 0.0223389 36.54C0.0240687 37.294 0.0877424 38.0465 0.212712 38.79C0.338919 39.5378 0.576765 40.2622 0.91821 40.9388C1.25824 41.6103 1.70451 42.222 2.23962 42.75C2.76694 43.2904 3.38001 43.739 4.05376 44.0775C4.72327 44.4204 5.44065 44.6594 6.18146 44.7863C6.92192 44.91 7.67058 44.9777 8.42113 44.9888H125.579C126.329 44.9777 127.078 44.91 127.818 44.7863C128.562 44.6578 129.283 44.419 129.957 44.0775C130.629 43.7361 131.242 43.2878 131.771 42.75C132.3 42.2161 132.745 41.6056 133.093 40.9388C133.429 40.2611 133.663 39.5369 133.787 38.79C133.91 38.0461 133.978 37.294 133.989 36.54C133.989 36.1912 133.989 35.8537 133.989 35.505V9.495C133.989 9.1575 133.989 8.80875 133.989 8.46C133.978 7.70599 133.91 6.95387 133.787 6.21C133.663 5.46672 133.429 4.74625 133.093 4.0725C132.397 2.72177 131.302 1.62116 129.957 0.9225C129.283 0.581049 128.562 0.342187 127.818 0.21375C127.078 0.0900275 126.329 0.0223372 125.579 0.01125H123.339L123.328 0Z" fill="black"/>
<path d="M9.4514 44.01H8.44355C7.74304 44.0213 7.04277 43.9761 6.34945 43.875C5.69525 43.7478 5.06446 43.5202 4.47932 43.2C3.90517 42.9089 3.37995 42.5293 2.92274 42.075C2.46484 41.6162 2.08636 41.0839 1.8029 40.5C1.50303 39.9131 1.29528 39.2831 1.18699 38.6325C1.07689 37.9365 1.01701 37.2334 1.00781 36.5287C1.00781 36.2925 1.00781 35.4937 1.00781 35.4937V9.49497C1.00781 9.49497 1.00781 8.71872 1.00781 8.49372C1.01701 7.78905 1.07689 7.08597 1.18699 6.38997C1.2895 5.73221 1.49352 5.09455 1.7917 4.49997C2.07846 3.91802 2.45658 3.38622 2.91154 2.92497C3.37321 2.47094 3.90207 2.09145 4.47932 1.79997C5.06352 1.49872 5.69057 1.29001 6.33825 1.18122C7.03405 1.06438 7.7381 1.00418 8.44355 1.00122H125.568C126.265 1.011 126.961 1.07115 127.65 1.18122C128.301 1.29164 128.932 1.50025 129.521 1.79997C130.678 2.3959 131.621 3.33976 132.219 4.49997C132.511 5.0855 132.714 5.71098 132.824 6.35622C132.938 7.05572 133.002 7.76255 133.014 8.47122V9.47247C133.014 9.89997 133.014 10.305 133.014 10.71V34.2675C133.014 34.6837 133.014 35.0775 133.014 35.4825V36.5287C133.002 37.2262 132.938 37.9218 132.824 38.61C132.72 39.2637 132.516 39.8974 132.219 40.4887C131.928 41.0646 131.55 41.592 131.1 42.0525C130.64 42.5091 130.111 42.8889 129.532 43.1775C128.949 43.5072 128.318 43.7426 127.662 43.875C126.969 43.9907 126.269 44.0509 125.568 44.055H9.4514V44.01Z" fill="#FCFCFC"/>
<path d="M27.9959 22.3763C28.0073 21.3993 28.2649 20.4412 28.7447 19.5913C29.2245 18.7414 29.9108 18.0275 30.7395 17.5163C30.2129 16.7625 29.5188 16.1423 28.7121 15.7049C27.9054 15.2675 27.0084 15.0249 26.0922 14.9963C24.1325 14.7825 22.24 16.1213 21.2433 16.1213C20.2466 16.1213 18.6901 14.9963 17.0439 14.9963C15.9746 15.0299 14.9322 15.3408 14.0178 15.8986C13.1035 16.4565 12.3482 17.2424 11.8254 18.18C9.58577 22.1063 11.2543 27.855 13.4156 31.0275C14.5355 32.58 15.7561 34.3013 17.4022 34.245C19.0484 34.1888 19.6419 33.21 21.5792 33.21C23.5166 33.21 24.0765 34.245 25.7563 34.2113C27.436 34.1775 28.5782 32.6475 29.6197 31.0838C30.384 29.9957 30.97 28.7917 31.3554 27.5175C30.3539 27.0879 29.5009 26.3709 28.9033 25.4563C28.3056 24.5417 27.99 23.4703 27.9959 22.3763Z" fill="black"/>
<path d="M24.8156 12.915C25.7566 11.773 26.222 10.3099 26.1147 8.8313C24.6775 8.98453 23.3503 9.67528 22.3968 10.7663C21.9277 11.3022 21.5685 11.9259 21.3398 12.6016C21.1111 13.2773 21.0175 13.9917 21.0642 14.7038C21.7831 14.7081 22.4938 14.5496 23.1433 14.2399C23.7928 13.9302 24.3644 13.4773 24.8156 12.915Z" fill="black"/>
<path d="M47.3692 30.5326H42.0723L40.7957 34.3126H38.556L43.5729 20.3401H45.9134L50.9303 34.3126H48.6906L47.3692 30.5326ZM42.621 28.7888H46.8204L44.7935 22.6576H44.7375L42.621 28.7888Z" fill="black"/>
<path d="M61.7702 29.2499C61.7702 32.4112 60.0793 34.4474 57.5373 34.4474C56.8884 34.4763 56.2447 34.3206 55.6801 33.9982C55.1155 33.6758 54.6529 33.1998 54.3457 32.6249V37.6649H52.218V24.1649H54.2337V25.8749C54.5601 25.3084 55.0337 24.8417 55.6037 24.5246C56.1738 24.2076 56.8189 24.0521 57.4701 24.0749C60.0681 24.0187 61.7702 26.0549 61.7702 29.2499ZM59.6314 29.2499C59.6314 27.1912 58.5115 25.8749 56.9549 25.8749C55.3984 25.8749 54.2897 27.2587 54.2897 29.2499C54.2897 31.2412 55.4096 32.6812 56.9549 32.6812C58.5003 32.6812 59.6314 31.3312 59.6314 29.2499Z" fill="black"/>
<path d="M72.9239 29.25C72.9239 32.4113 71.2441 34.4475 68.7021 34.4475C68.0528 34.4791 67.408 34.3246 66.8428 34.0019C66.2777 33.6791 65.8156 33.2016 65.5105 32.625V37.665H63.3828V24.165H65.3873V25.875C65.711 25.3086 66.1824 24.8416 66.7507 24.5244C67.319 24.2072 67.9627 24.0518 68.6125 24.075C71.2329 24.0188 72.9239 26.055 72.9239 29.25ZM70.785 29.25C70.785 27.1913 69.7323 25.875 68.1085 25.875C66.4848 25.875 65.4545 27.2588 65.4545 29.25C65.4545 31.2413 66.5184 32.625 68.1085 32.625C69.6987 32.625 70.785 31.2975 70.785 29.25Z" fill="black"/>
<path d="M80.3036 30.3752C80.4604 31.7589 81.793 32.6252 83.6631 32.6252C85.5333 32.6252 86.6755 31.7139 86.6755 30.4652C86.6755 29.2164 85.914 28.7327 84.1111 28.2827L82.3081 27.8439C79.7549 27.2252 78.5679 26.0327 78.5679 24.0864C78.5679 21.6677 80.662 20.0139 83.6295 20.0139C86.5971 20.0139 88.5904 21.6677 88.6576 24.0864H86.5187C86.3955 22.6914 85.2421 21.8364 83.5735 21.8364C81.905 21.8364 80.7403 22.6802 80.7403 23.9289C80.7403 24.9077 81.4794 25.4927 83.2712 25.9427L84.8054 26.3139C87.661 26.9889 88.8368 28.1477 88.8368 30.1839C88.8368 32.8052 86.7651 34.4364 83.4727 34.4364C80.3932 34.4364 78.3103 32.8389 78.1759 30.3189L80.3036 30.3752Z" fill="black"/>
<path d="M93.3385 21.7126V24.1201H95.2646V25.7739H93.3385V31.3989C93.3385 32.2651 93.7193 32.6701 94.5703 32.6701C94.7943 32.6701 95.0295 32.6701 95.2534 32.6701V34.3126C94.8844 34.3832 94.5093 34.4171 94.1336 34.4139C92.0731 34.4139 91.278 33.6376 91.278 31.6576V25.7739H89.7662V24.1201H91.2444V21.7126H93.3385Z" fill="black"/>
<path d="M96.3733 29.25C96.3733 26.0438 98.2546 24.03 101.189 24.03C104.123 24.03 105.993 26.0438 105.993 29.25C105.993 32.4563 104.145 34.4363 101.189 34.4363C98.2322 34.4363 96.3733 32.4338 96.3733 29.25ZM103.876 29.25C103.876 27.0563 102.868 25.7513 101.189 25.7513C99.5088 25.7513 98.5458 27 98.5458 29.25C98.5458 31.5 99.5424 32.7488 101.233 32.7488C102.924 32.7488 103.921 31.455 103.921 29.25H103.876Z" fill="black"/>
<path d="M107.717 24.12H109.744V25.875C109.88 25.3343 110.197 24.857 110.641 24.5232C111.086 24.1893 111.631 24.0191 112.185 24.0412C112.423 24.039 112.66 24.0655 112.891 24.12V26.0775C112.603 25.9565 112.296 25.8879 111.984 25.875C111.704 25.8567 111.423 25.895 111.157 25.9875C110.892 26.0799 110.648 26.2248 110.439 26.4135C110.231 26.6022 110.062 26.8309 109.942 27.0862C109.823 27.3414 109.756 27.6181 109.744 27.9C109.744 28.0012 109.744 28.1137 109.744 28.2262V34.3125H107.717V24.12Z" fill="black"/>
<path d="M122.488 31.3201C122.208 33.1651 120.416 34.4363 118.121 34.4363C115.175 34.4363 113.35 32.4451 113.35 29.2613C113.35 26.0776 115.187 23.9963 118.042 23.9963C120.898 23.9963 122.611 25.9313 122.611 29.0251V29.7338H115.444V29.8688C115.385 30.5681 115.604 31.2624 116.053 31.8C116.502 32.3376 117.145 32.6747 117.841 32.7376H118.177C118.668 32.7837 119.161 32.6696 119.582 32.4122C120.004 32.1549 120.332 31.768 120.517 31.3088L122.488 31.3201ZM115.455 28.2713H120.528C120.562 27.6225 120.338 26.9869 119.905 26.5039C119.473 26.0208 118.867 25.73 118.221 25.6951H118.042C117.705 25.6921 117.37 25.7562 117.057 25.8836C116.744 26.0111 116.459 26.1994 116.218 26.4377C115.978 26.676 115.787 26.9597 115.656 27.2724C115.525 27.5852 115.457 27.9208 115.455 28.2601V28.2713Z" fill="black"/>
<path d="M42.3636 9.82135C43.1438 9.76862 43.9131 10.0274 44.5045 10.5414C45.0958 11.0554 45.4613 11.7831 45.5215 12.5663C45.5439 12.7645 45.5439 12.9645 45.5215 13.1626C45.5215 15.3001 44.4017 16.5376 42.386 16.5376H39.9447V9.7876L42.3636 9.82135ZM40.9862 15.5813H42.2404C42.5173 15.6012 42.7954 15.5655 43.0584 15.4764C43.3215 15.3873 43.5643 15.2465 43.7727 15.0622C43.9811 14.878 44.151 14.654 44.2724 14.4032C44.3938 14.1524 44.4644 13.8798 44.4801 13.6013C44.4912 13.4591 44.4912 13.3161 44.4801 13.1738C44.5179 12.8983 44.5013 12.6179 44.4311 12.3488C44.3609 12.0797 44.2386 11.8271 44.0711 11.6056C43.9037 11.384 43.6943 11.1978 43.4551 11.0577C43.2159 10.9175 42.9515 10.8262 42.6771 10.7888C42.543 10.7776 42.4081 10.7776 42.274 10.7888H40.9862V15.5813Z" fill="black"/>
<path d="M46.675 13.9951C46.6156 13.3611 46.8093 12.7293 47.2136 12.2388C47.6178 11.7482 48.1995 11.4391 48.8306 11.3795C49.4618 11.3198 50.0906 11.5144 50.5789 11.9206C51.0672 12.3267 51.3749 12.9111 51.4343 13.5451C51.4455 13.6949 51.4455 13.8453 51.4343 13.9951C51.4541 14.6058 51.242 15.2013 50.841 15.6607C50.44 16.1202 49.8801 16.4092 49.2748 16.4693C48.6695 16.5294 48.0641 16.3561 47.5813 15.9843C47.0985 15.6126 46.7745 15.0704 46.675 14.4676C46.6637 14.3103 46.6637 14.1524 46.675 13.9951ZM50.404 13.9951C50.404 12.8701 49.9225 12.2626 49.0602 12.2626C48.1979 12.2626 47.7052 12.9038 47.7052 13.9951C47.7052 15.0863 48.1531 15.7501 49.0602 15.7501C49.9673 15.7501 50.404 15.1088 50.404 14.0063V13.9951Z" fill="black"/>
<path d="M57.7502 16.5376H56.7199L55.6785 12.8026H55.6001L54.5587 16.5376H53.5396L52.151 11.4639H53.1589L54.0659 15.3339H54.1331L55.1746 11.4639H56.1264L57.1679 15.3339H57.2463L58.1421 11.4639H59.1388L57.7502 16.5376Z" fill="black"/>
<path d="M60.3034 11.4638H61.2665V12.2738H61.3449C61.4687 11.9841 61.6805 11.7411 61.9499 11.5795C62.2194 11.4178 62.5328 11.3459 62.8454 11.3738C63.0603 11.3569 63.2763 11.3829 63.4811 11.4502C63.6859 11.5175 63.8755 11.6248 64.0389 11.7659C64.2023 11.9071 64.3363 12.0793 64.4332 12.2726C64.5301 12.466 64.588 12.6766 64.6036 12.8926C64.6149 13.0123 64.6149 13.1328 64.6036 13.2526V16.5376H63.6069V13.5001C63.6069 12.6788 63.2486 12.2738 62.4871 12.2738C62.3327 12.2614 62.1774 12.2812 62.031 12.3322C61.8846 12.3831 61.7503 12.464 61.6367 12.5697C61.523 12.6755 61.4324 12.8037 61.3706 12.9464C61.3088 13.0892 61.2772 13.2432 61.2777 13.3988V16.5376H60.281L60.3034 11.4638Z" fill="black"/>
<path d="M66.1714 9.49512H67.1904V16.5376H66.1938L66.1714 9.49512Z" fill="black"/>
<path d="M68.5566 13.9951C68.4972 13.3611 68.6909 12.7293 69.0952 12.2388C69.4995 11.7482 70.0811 11.4391 70.7123 11.3795C71.3434 11.3198 71.9722 11.5144 72.4605 11.9206C72.9488 12.3267 73.2565 12.9111 73.3159 13.5451C73.3271 13.6949 73.3271 13.8453 73.3159 13.9951C73.3357 14.6058 73.1236 15.2013 72.7226 15.6607C72.3216 16.1202 71.7617 16.4092 71.1564 16.4693C70.5511 16.5294 69.9457 16.3561 69.4629 15.9843C68.9801 15.6126 68.6561 15.0704 68.5566 14.4676C68.5342 14.3109 68.5342 14.1518 68.5566 13.9951ZM72.2856 13.9951C72.2856 12.8701 71.7929 12.2626 70.9306 12.2626C70.0683 12.2626 69.5868 12.9038 69.5868 13.9951C69.5868 15.0863 70.0683 15.7501 70.9306 15.7501C71.7929 15.7501 72.2856 15.0976 72.2856 13.9951Z" fill="black"/>
<path d="M74.3574 15.0975C74.3574 14.1863 75.0293 13.6688 76.2387 13.59L77.6049 13.5V13.0613C77.6049 12.5325 77.2466 12.2288 76.5635 12.2288C75.8804 12.2288 75.6228 12.4313 75.522 12.7913H74.5478C74.6597 11.9138 75.466 11.3625 76.6083 11.3625C77.7505 11.3625 78.5904 11.9925 78.5904 13.0613V16.5375H77.6273V15.8175H77.5489C77.3929 16.076 77.1697 16.2869 76.9034 16.4276C76.637 16.5684 76.3376 16.6336 76.0372 16.6163C75.8384 16.6381 75.6374 16.6201 75.4456 16.5633C75.2539 16.5065 75.0753 16.4121 74.9201 16.2855C74.7649 16.1589 74.6363 16.0026 74.5416 15.8258C74.447 15.6489 74.3881 15.4549 74.3686 15.255C74.3593 15.2031 74.3555 15.1503 74.3574 15.0975ZM77.6049 14.625V14.1975L76.3731 14.2763C75.6788 14.2763 75.354 14.5688 75.354 15.0075C75.354 15.4463 75.7572 15.7275 76.2947 15.7275C76.4499 15.7431 76.6065 15.7278 76.7558 15.6825C76.9051 15.6372 77.044 15.5628 77.1646 15.4635C77.2852 15.3643 77.3852 15.2421 77.4589 15.104C77.5325 14.966 77.5783 14.8147 77.5937 14.6588L77.6049 14.625Z" fill="black"/>
<path d="M79.9006 13.9951C79.9006 12.3976 80.7181 11.3851 81.9947 11.3851C82.3098 11.3702 82.6226 11.4459 82.8963 11.6033C83.1701 11.7607 83.3934 11.9933 83.5401 12.2739H83.6073V9.49512H84.604V16.5376H83.6521V15.7501H83.5737C83.414 16.0261 83.1829 16.2534 82.9048 16.4079C82.6268 16.5624 82.3123 16.6383 81.9947 16.6276C80.7069 16.6164 79.9006 15.6039 79.9006 13.9951ZM80.9309 13.9951C80.9309 15.1201 81.4348 15.7164 82.2747 15.7164C83.1146 15.7164 83.6297 15.0639 83.6297 14.0064C83.6297 12.9489 83.1034 12.2851 82.2747 12.2851C81.446 12.2851 80.9309 12.9376 80.9309 13.9951Z" fill="black"/>
<path d="M88.7249 13.9951C88.6655 13.3611 88.8592 12.7293 89.2635 12.2388C89.6678 11.7482 90.2494 11.4391 90.8806 11.3795C91.5117 11.3198 92.1406 11.5144 92.6288 11.9206C93.1171 12.3267 93.4248 12.9111 93.4842 13.5451C93.4954 13.6949 93.4954 13.8453 93.4842 13.9951C93.504 14.6058 93.2919 15.2013 92.8909 15.6607C92.4899 16.1202 91.93 16.4092 91.3247 16.4693C90.7194 16.5294 90.114 16.3561 89.6312 15.9843C89.1485 15.6126 88.8244 15.0704 88.7249 14.4676C88.7137 14.3103 88.7137 14.1524 88.7249 13.9951ZM92.4539 13.9951C92.4539 12.8701 91.9612 12.2626 91.1101 12.2626C90.2591 12.2626 89.7551 12.9038 89.7551 13.9951C89.7551 15.0863 90.2367 15.7501 91.1101 15.7501C91.9836 15.7501 92.4539 15.0976 92.4539 13.9951Z" fill="black"/>
<path d="M94.8169 11.4639H95.7687V12.2739H95.8471C95.9729 11.9832 96.1867 11.7399 96.4581 11.5783C96.7295 11.4167 97.0447 11.3452 97.3589 11.3739C97.7921 11.3428 98.22 11.485 98.5493 11.7695C98.8786 12.054 99.0827 12.4577 99.117 12.8926C99.1285 13.0123 99.1285 13.1329 99.117 13.2526V16.5376H98.1316V13.5001C98.1316 12.6789 97.7732 12.2739 97.0117 12.2739C96.8573 12.2614 96.702 12.2813 96.5556 12.3322C96.4093 12.3831 96.275 12.464 96.1613 12.5698C96.0477 12.6755 95.9571 12.8038 95.8953 12.9465C95.8335 13.0892 95.8018 13.2432 95.8023 13.3989C95.7968 13.455 95.7968 13.5115 95.8023 13.5676V16.5376H94.8057L94.8169 11.4639Z" fill="black"/>
<path d="M104.727 10.2039V11.4976H105.847V12.3751H104.727V14.9851C104.727 15.5139 104.94 15.7501 105.433 15.7501H105.814V16.5826C105.635 16.5993 105.455 16.5993 105.276 16.5826C104.156 16.5826 103.731 16.1889 103.731 15.2214V12.3751H102.924V11.5426H103.731V10.2039H104.727Z" fill="black"/>
<path d="M107.169 9.49512H108.165V12.2851H108.244C108.373 11.9984 108.585 11.7577 108.853 11.595C109.121 11.4323 109.432 11.3552 109.744 11.3739C109.962 11.3617 110.18 11.3929 110.386 11.4655C110.591 11.5381 110.781 11.6508 110.943 11.7971C111.105 11.9435 111.237 12.1205 111.331 12.3181C111.426 12.5158 111.48 12.7301 111.491 12.9489C111.503 13.0536 111.503 13.1592 111.491 13.2639V16.5376H110.495V13.5001C110.495 12.6901 110.125 12.2851 109.375 12.2851C109.217 12.2713 109.058 12.2898 108.907 12.3394C108.756 12.389 108.617 12.4688 108.497 12.5739C108.378 12.679 108.281 12.8073 108.213 12.951C108.144 13.0947 108.105 13.2509 108.098 13.4101V16.5376H107.169V9.49512Z" fill="black"/>
<path d="M117.314 15.1651C117.179 15.6389 116.878 16.0477 116.466 16.3164C116.055 16.585 115.561 16.6955 115.075 16.6276C114.771 16.6429 114.468 16.596 114.183 16.4897C113.898 16.3835 113.638 16.2202 113.418 16.0097C113.198 15.7993 113.023 15.546 112.904 15.2655C112.784 14.9849 112.723 14.6828 112.723 14.3776C112.712 14.2541 112.712 14.1299 112.723 14.0064C112.682 13.7027 112.701 13.3939 112.779 13.0977C112.857 12.8014 112.993 12.5236 113.178 12.2801C113.363 12.0365 113.595 11.8321 113.859 11.6786C114.122 11.525 114.414 11.4253 114.716 11.3851C114.828 11.3739 114.941 11.3739 115.052 11.3851C116.452 11.3851 117.292 12.3414 117.292 13.9389V14.2876H113.742V14.3439C113.732 14.5219 113.757 14.7002 113.816 14.8683C113.876 15.0363 113.969 15.1905 114.089 15.3218C114.209 15.453 114.354 15.5586 114.516 15.6322C114.678 15.7058 114.853 15.7459 115.03 15.7501H115.153C115.393 15.7773 115.635 15.7332 115.85 15.6232C116.065 15.5132 116.243 15.3422 116.363 15.1314L117.314 15.1651ZM113.821 13.5001H116.363C116.384 13.1784 116.279 12.861 116.069 12.6167C115.86 12.3725 115.563 12.221 115.243 12.1951H115.12C114.775 12.1951 114.445 12.3326 114.201 12.5773C113.957 12.8221 113.821 13.154 113.821 13.5001Z" fill="black"/>
</g>
<defs>
<clipPath id="clip0_22_241">
<rect width="134" height="45" fill="white"/>
</clipPath>
</defs>
</svg>
